<?xml version="1.0" encoding="UTF-8" standalone="no"?>
<!-- Created with Inkscape (http://www.inkscape.org/) -->

<svg
   xmlns:dc="http://purl.org/dc/elements/1.1/"
   xmlns:cc="http://creativecommons.org/ns#"
   xmlns:rdf="http://www.w3.org/1999/02/22-rdf-syntax-ns#"
   xmlns:svg="http://www.w3.org/2000/svg"
   xmlns="http://www.w3.org/2000/svg"
   xmlns:sodipodi="http://sodipodi.sourceforge.net/DTD/sodipodi-0.dtd"
   xmlns:inkscape="http://www.inkscape.org/namespaces/inkscape"
   width="412.44498"
   height="338.75003"
   id="svg2"
   version="1.1"
   inkscape:version="0.48.3.1 r9886"
   sodipodi:docname="EQcorrscan_logo.svg">
  <defs
     id="defs4" />
  <sodipodi:namedview
     id="base"
     pagecolor="#ffffff"
     bordercolor="#666666"
     borderopacity="1.0"
     inkscape:pageopacity="0.0"
     inkscape:pageshadow="2"
     inkscape:zoom="1.4"
     inkscape:cx="44.342759"
     inkscape:cy="182.32884"
     inkscape:document-units="px"
     inkscape:current-layer="layer1"
     showgrid="false"
     inkscape:window-width="1323"
     inkscape:window-height="858"
     inkscape:window-x="509"
     inkscape:window-y="66"
     inkscape:window-maximized="0"
     fit-margin-top="0"
     fit-margin-left="0"
     fit-margin-right="0"
     fit-margin-bottom="0" />
  <metadata
     id="metadata7">
    <rdf:RDF>
      <cc:Work
         rdf:about="">
        <dc:format>image/svg+xml</dc:format>
        <dc:type
           rdf:resource="http://purl.org/dc/dcmitype/StillImage" />
        <dc:title></dc:title>
      </cc:Work>
    </rdf:RDF>
  </metadata>
  <g
     inkscape:label="Layer 1"
     inkscape:groupmode="layer"
     id="layer1"
     transform="translate(-305.48751,-85.06213)">
    <path
       style="fill:none;stroke:#000000;stroke-width:7.70519304;stroke-linecap:butt;stroke-linejoin:miter;stroke-miterlimit:4;stroke-opacity:1;stroke-dasharray:none"
       d="m 306.64173,230.93361 c 6.79318,0.18947 15.7334,51.00831 20.35543,0 7.35057,-51.42857 15.26657,-51.42857 23.748,0 6.044,100.43412 12.02814,185.43781 16.96285,0 3.17884,-73.95901 17.15467,-9.09858 45.79972,0 4.48528,1.61782 10.70449,1.00294 16.53877,-5.71429 8.88747,-10.16048 18.15056,-17.91105 27.56465,2.14286 20.45656,43.57658 46.37669,20.262 48.76822,0 13.18431,-103.63351 12.72379,-177.814312 26.3563,12.97848 18.71615,261.94034 27.62397,215.9926 28.3489,0 2.06735,-162.075984 7.96873,-238.5853064 27.98872,0 0.83735,16.45466 9.09342,102.01517 14.41843,0 6.94044,-132.96311 26.72891,-24.43722 40.71085,0 21.65707,37.85159 29.68902,33.31076 43.25529,0 16.65617,-45.55279 20.07614,-1.92783 29.685,0"
       id="path2985"
       inkscape:connector-curvature="0"
       sodipodi:nodetypes="ccccccscsccsscc" />
  </g>
</svg>
