<?xml version="1.0" encoding="UTF-8" standalone="no"?>
<!-- Created with Inkscape (http://www.inkscape.org/) -->

<svg
   xmlns:dc="http://purl.org/dc/elements/1.1/"
   xmlns:cc="http://creativecommons.org/ns#"
   xmlns:rdf="http://www.w3.org/1999/02/22-rdf-syntax-ns#"
   xmlns:svg="http://www.w3.org/2000/svg"
   xmlns="http://www.w3.org/2000/svg"
   xmlns:sodipodi="http://sodipodi.sourceforge.net/DTD/sodipodi-0.dtd"
   xmlns:inkscape="http://www.inkscape.org/namespaces/inkscape"
   width="701.42859"
   height="354.36234"
   id="svg2"
   version="1.1"
   inkscape:version="0.48.3.1 r9886"
   sodipodi:docname="EQcorrscan_logo.svg">
  <defs
     id="defs4" />
  <sodipodi:namedview
     id="base"
     pagecolor="#ffffff"
     bordercolor="#666666"
     borderopacity="1.0"
     inkscape:pageopacity="0.0"
     inkscape:pageshadow="2"
     inkscape:zoom="1.4"
     inkscape:cx="358.11895"
     inkscape:cy="157.83996"
     inkscape:document-units="px"
     inkscape:current-layer="layer1"
     showgrid="false"
     inkscape:window-width="1323"
     inkscape:window-height="858"
     inkscape:window-x="509"
     inkscape:window-y="66"
     inkscape:window-maximized="0"
     fit-margin-top="0"
     fit-margin-left="0"
     fit-margin-right="0"
     fit-margin-bottom="0" />
  <metadata
     id="metadata7">
    <rdf:RDF>
      <cc:Work
         rdf:about="">
        <dc:format>image/svg+xml</dc:format>
        <dc:type
           rdf:resource="http://purl.org/dc/dcmitype/StillImage" />
        <dc:title />
      </cc:Work>
    </rdf:RDF>
  </metadata>
  <g
     inkscape:label="Layer 1"
     inkscape:groupmode="layer"
     id="layer1"
     transform="translate(-20.714286,-70.615406)">
    <path
       style="fill:none;stroke:#000000;stroke-width:10;stroke-linecap:butt;stroke-linejoin:miter;stroke-miterlimit:4;stroke-opacity:1;stroke-dasharray:none"
       d="m 25.714286,230.93361 c 11.442105,0.18947 26.500593,51.00831 34.285714,0 12.380952,-51.42857 25.714286,-51.42857 40,0 10.18024,100.43412 20.25963,185.43781 28.57143,0 5.35428,-73.95901 28.8945,-9.09858 77.14286,0 11.72168,4.39574 19.92417,-2.53259 27.85713,-5.71429 5.41805,-3.36733 35.07488,-11.80282 46.42858,2.14286 34.80188,42.74694 71.16681,35.34494 82.14286,0 22.20703,-103.63351 21.43135,-177.814312 44.39331,12.97848 31.52458,261.94034 46.52849,215.9926 47.74954,0 3.48214,-162.075984 13.42214,-238.5853064 47.14286,0 1.4104,16.45466 15.31653,102.01517 24.28572,0 11.69014,-132.96311 45.02091,-24.43722 68.57142,0 36.47813,37.85159 50.00677,33.31076 72.85715,0 28.05486,-45.55279 33.81529,-1.92783 50,0"
       id="path2985"
       inkscape:connector-curvature="0"
       sodipodi:nodetypes="ccccccscsccsscc" />
    <path
       sodipodi:type="arc"
       style="opacity:0.5131456;fill:#d1f8fb;fill-opacity:1;stroke:#00fffc;stroke-width:4;stroke-linecap:round;stroke-linejoin:round;stroke-miterlimit:4;stroke-opacity:1;stroke-dasharray:none;stroke-dashoffset:0"
       id="path3755"
       sodipodi:cx="169.70563"
       sodipodi:cy="458.39249"
       sodipodi:rx="59.598999"
       sodipodi:ry="59.598999"
       d="m 229.30463,458.39249 c 0,32.91561 -26.68338,59.599 -59.599,59.599 -32.91562,0 -59.599,-26.68339 -59.599,-59.599 0,-32.91562 26.68338,-59.599 59.599,-59.599 32.91562,0 59.599,26.68338 59.599,59.599 z"
       transform="matrix(-0.33344267,-0.94277038,0.94277038,-0.33344267,-236.63761,515.80924)" />
    <rect
       style="fill:#000000;stroke:#01fffc;stroke-width:4;stroke-linecap:round;stroke-linejoin:round;stroke-miterlimit:4;stroke-opacity:1;stroke-dasharray:none;stroke-dashoffset:0"
       id="rect3757"
       width="18.182745"
       height="104.04572"
       x="-250.49364"
       y="29.001688"
       ry="3.7419817"
       transform="matrix(-0.66341388,-0.74825265,0.74825265,-0.66341388,0,0)" />
    <flowRoot
       xml:space="preserve"
       id="flowRoot3765"
       style="font-size:28px;font-style:normal;font-variant:normal;font-weight:normal;font-stretch:normal;text-align:center;line-height:125%;letter-spacing:0px;word-spacing:0px;writing-mode:lr-tb;text-anchor:middle;fill:#000000;fill-opacity:1;stroke:none;font-family:Cambria;-inkscape-font-specification:Cambria"
       transform="translate(-40.406102,-24.243661)"><flowRegion
         id="flowRegion3767"><rect
           id="rect3769"
           width="324.25897"
           height="110.10661"
           x="144.45181"
           y="295.75793"
           style="font-size:28px" /></flowRegion><flowPara
         id="flowPara3771"
         style="font-weight:bold;font-family:Arial;-inkscape-font-specification:Arial Bold">EQcorrscan</flowPara><flowPara
         id="flowPara3773"
         style="font-size:22px;font-style:italic;font-family:Arial;-inkscape-font-specification:Arial Italic">Correlation for earthquake detection in Python</flowPara></flowRoot>    <path
       sodipodi:nodetypes="ccccc"
       inkscape:connector-curvature="0"
       id="path3775"
       d="m 261.14029,88.305433 c 4.6455,0.07691 10.75925,20.709407 13.92002,0 5.02667,-20.880033 10.44001,-20.880033 16.24001,0 4.13319,40.776297 8.22543,75.287837 11.60002,0 2.17384,-30.027383 11.73119,-3.694033 31.32005,0"
       style="fill:none;stroke:#000000;stroke-width:4.06000519;stroke-linecap:butt;stroke-linejoin:miter;stroke-miterlimit:4;stroke-opacity:1;stroke-dasharray:none" />
  </g>
</svg>
